<?xml version="1.0" encoding="UTF-8" standalone="no"?>
<!-- Created with Inkscape (http://www.inkscape.org/) -->

<svg
   xmlns:dc="http://purl.org/dc/elements/1.1/"
   xmlns:cc="http://creativecommons.org/ns#"
   xmlns:rdf="http://www.w3.org/1999/02/22-rdf-syntax-ns#"
   xmlns:svg="http://www.w3.org/2000/svg"
   xmlns="http://www.w3.org/2000/svg"
   xmlns:sodipodi="http://sodipodi.sourceforge.net/DTD/sodipodi-0.dtd"
   xmlns:inkscape="http://www.inkscape.org/namespaces/inkscape"
   width="364"
   height="69.5"
   viewBox="0 0 96.308334 18.388543"
   version="1.1"
   id="svg8"
   sodipodi:docname="TheDocsLogo4.svg"
   inkscape:version="0.92.2 (5c3e80d, 2017-08-06)"
   inkscape:export-filename="E:\Documents\TheDocsLogo.png"
   inkscape:export-xdpi="99.430885"
   inkscape:export-ydpi="99.430885">
  <defs
     id="defs2" />
  <sodipodi:namedview
     id="base"
     pagecolor="#ffffff"
     bordercolor="#666666"
     borderopacity="1.0"
     inkscape:pageopacity="0.0"
     inkscape:pageshadow="2"
     inkscape:zoom="1"
     inkscape:cx="22.237488"
     inkscape:cy="24.210751"
     inkscape:document-units="mm"
     inkscape:current-layer="layer2"
     showgrid="false"
     inkscape:window-width="1366"
     inkscape:window-height="745"
     inkscape:window-x="-8"
     inkscape:window-y="-8"
     inkscape:window-maximized="1"
     units="px"
     fit-margin-top="0"
     fit-margin-left="0"
     fit-margin-right="0"
     fit-margin-bottom="0" />
  <metadata
     id="metadata5">
    <rdf:RDF>
      <cc:Work
         rdf:about="">
        <dc:format>image/svg+xml</dc:format>
        <dc:type
           rdf:resource="http://purl.org/dc/dcmitype/StillImage" />
        <dc:title></dc:title>
      </cc:Work>
    </rdf:RDF>
  </metadata>
  <g
     inkscape:groupmode="layer"
     id="layer2"
     inkscape:label="Layer 2"
     transform="translate(-26.842806,-90.133957)">
    <g
       aria-label="THE DOCS"
       transform="matrix(0.26458333,0,0,0.26458333,16.190846,85.764686)"
       style="font-style:normal;font-variant:normal;font-weight:300;font-stretch:normal;font-size:32px;line-height:1.25;font-family:'Open Sans';-inkscape-font-specification:'Open Sans, Light';font-variant-ligatures:normal;font-variant-caps:normal;font-variant-numeric:normal;font-feature-settings:normal;text-align:center;letter-spacing:0px;word-spacing:0px;writing-mode:lr-tb;text-anchor:middle;fill:#000000;fill-opacity:1;stroke:none"
       id="flowRoot14253">
      <path
         d="M 71.618752,86.013835 H 60.415627 V 26.259046 h -20.15625 v -9.745212 h 51.515625 v 9.745212 h -20.15625 z"
         style="letter-spacing:-11px;fill:#1377ff;fill-opacity:1;stroke-width:1.00704312"
         id="path14423"
         inkscape:connector-curvature="0" />
      <path
         d="m 145.36875,86.013835 h -11.25 V 54.686543 H 102.525 V 86.013835 H 91.321876 V 16.513834 H 102.525 v 28.427497 h 31.59375 V 16.513834 h 11.25 z"
         style="letter-spacing:-29.30000114px;fill:#1377ff;fill-opacity:1;stroke-width:1.00704312"
         id="path14425"
         inkscape:connector-curvature="0" />
      <path
         d="M 172.975,86.013835 H 134.20937 V 16.513834 H 172.975 v 9.602599 h -27.5625 v 18.919973 h 25.82812 V 54.54393 H 145.4125 v 21.819768 h 27.5625 z"
         style="font-style:normal;font-variant:normal;font-weight:600;font-stretch:normal;font-size:96px;font-family:'Open Sans';-inkscape-font-specification:'Open Sans, Semi-Bold';font-variant-ligatures:normal;font-variant-caps:normal;font-variant-numeric:normal;font-feature-settings:normal;text-align:center;writing-mode:lr-tb;text-anchor:middle;fill:#1377ff;fill-opacity:1;stroke-width:1.00704312"
         id="path14427"
         inkscape:connector-curvature="0" />
      <path
         d="m 268.50625,50.598308 q 0,17.208618 -9.42188,26.335842 -9.42187,9.079685 -27.14062,9.079685 H 212.77187 V 16.513834 h 21.1875 q 16.35938,0 25.45313,8.937073 9.09375,8.937072 9.09375,25.147401 z m -11.8125,0.380301 q 0,-24.957251 -23.01563,-24.957251 H 223.975 v 50.437415 h 7.96875 q 24.75,0 24.75,-25.480164 z"
         style="letter-spacing:-22px;fill:#1377ff;fill-opacity:1;stroke-width:1.00704312"
         id="path14429"
         inkscape:connector-curvature="0" />
      <path
         d="m 322.11562,51.240744 q 0,16.486047 -8.39062,25.629568 -8.34375,9.143522 -23.67188,9.143522 -15.51562,0 -23.85937,-9.051163 -8.29688,-9.097342 -8.29688,-25.814286 0,-16.716944 8.34375,-25.675748 8.39063,-8.958804 23.90625,-8.958804 15.28125,0 23.625,9.097342 8.34375,9.097343 8.34375,25.629569 z m -52.3125,0 q 0,12.468439 5.10938,18.933555 5.10937,6.418937 15.14062,6.418937 9.98438,0 15.04688,-6.372758 5.10937,-6.372757 5.10937,-18.979734 0,-12.422259 -5.0625,-18.841196 -5.01562,-6.418937 -15,-6.418937 -10.07812,0 -15.23437,6.418937 -5.10938,6.418937 -5.10938,18.841196 z"
         style="letter-spacing:-22px;fill:#1377ff;fill-opacity:1;stroke-width:0.99255258"
         id="path14431"
         inkscape:connector-curvature="0" />
      <path
         style="letter-spacing:-11px;fill:#1377ff;fill-opacity:1;stroke-width:0.99255258"
         d="m 303.82422,0.10742188 c -6.65625,0 -12.45313,1.40157402 -17.39063,4.20312502 -4.9375,2.8015499 -8.71875,6.8351571 -11.34375,12.0996091 -2.59375,5.264452 -3.89062,11.404559 -3.89062,18.423828 0,11.144629 2.6875,19.719334 8.0625,25.722657 5.375,5.972536 13.07812,8.958984 23.10937,8.958984 6.8125,0 10.40625,-0.955534 17.78125,-4.556641 4.9375,2.370543 11.28125,4.556641 19.03125,4.556641 7.75,0 13.82813,-1.707724 18.23438,-5.125 4.40625,-3.417275 6.60937,-8.127536 6.60937,-14.130859 0,-3.047841 -0.54687,-5.695963 -1.64062,-7.94336 -1.09375,-2.247398 -2.8125,-4.265178 -5.15625,-6.050781 -2.34375,-1.785603 -6.03125,-3.708804 -11.0625,-5.771484 -4.46875,-1.81639 -7.5625,-3.278414 -9.28125,-4.386719 -1.71875,-1.108306 -2.95313,-2.278315 -3.70313,-3.509766 -0.75,-1.262237 -1.125,-2.770573 -1.125,-4.52539 0,-2.555261 0.9375,-4.603266 2.8125,-6.142578 1.875,-1.5701 4.625,-2.3554692 8.25,-2.3554692 4.78125,0 10.21875,1.2626352 16.3125,3.7871092 l 3.5625,-9.0039061 c -6.5,-2.832337 -13.03125,-4.25000002 -19.59375,-4.25000002 -6.84375,0 -12.29687,1.61705142 -16.35937,4.84960932 -4.0625,3.232558 -6.09375,7.6649408 -6.09375,13.2988278 0,4.494795 1.28125,8.34315 3.84375,11.544922 2.5625,3.201772 6.96875,6.049282 13.21875,8.542969 6.0625,2.401329 10.0625,4.479558 12,6.234375 1.9375,1.754817 2.90625,3.895448 2.90625,6.419922 0,2.80155 -1.0625,5.032853 -3.1875,6.695312 -2.09375,1.662459 -5.35938,2.494141 -9.79688,2.494141 -3.03125,0 -6.3125,-0.414865 -9.84375,-1.246094 -3.5,-0.831229 -6.8125,-1.971014 -9.9375,-3.417968 -2.9375,0.892801 -7.98437,2.990234 -7.98437,2.990234 -5,1.600002 -5.53125,1.582031 -8.4375,1.582031 -6.71875,0 -11.85938,-2.124542 -15.42188,-6.373047 -3.53125,-4.248505 -5.29687,-10.513415 -5.29687,-18.794922 0,-7.912071 1.84375,-14.116533 5.53125,-18.611328 3.6875,-4.494795 8.75,-6.7421872 15.1875,-6.7421872 2.84375,0 5.54687,0.4168178 8.10937,1.2480472 2.59375,0.800443 5.04688,1.738887 7.35938,2.816406 l 4.03125,-9.1894532 c -5.9375,-2.893909 -12.40625,-4.34179692 -19.40625,-4.34179692 z"
         transform="translate(40.259377,16.498209)"
         id="path14433"
         inkscape:connector-curvature="0"
         sodipodi:nodetypes="sscscscssssscscscsccsssscsscscccscssscccs" />
    </g>
  </g>
</svg>
